<svg width="32" height="32" viewBox="0 0 32 32" fill="none" xmlns="http://www.w3.org/2000/svg">
  <rect width="32" height="32" rx="8" fill="#3B82F6"/>
  <path d="M8 20c0-1.1.9-2 2-2s2 .9 2 2-.9 2-2 2-2-.9-2-2z" fill="white"/>
  <path d="M20 20c0-1.1.9-2 2-2s2 .9 2 2-.9 2-2 2-2-.9-2-2z" fill="white"/>
  <path d="M16 12c-2.8 0-5.2 1.5-6.5 3.7-.2.4-.2.9.1 1.3.3.4.8.5 1.2.2 1.5-1.1 3.3-1.2 4.9-.2.2.1.4.1.6 0 1.6-1 3.4-.9 4.9.2.4.3.9.2 1.2-.2.3-.4.3-.9.1-1.3C21.2 13.5 18.8 12 16 12z" fill="white"/>
  <circle cx="12" cy="9" r="1.5" fill="white"/>
  <circle cx="20" cy="9" r="1.5" fill="white"/>
  <path d="M16 6c-1.1 0-2 .9-2 2v2c0 .6.4 1 1 1h2c.6 0 1-.4 1-1V8c0-1.1-.9-2-2-2z" fill="white"/>
</svg>
