<?xml version="1.0" encoding="utf-8"?>
<!-- Generator: Adobe Illustrator 28.3.0, SVG Export Plug-In . SVG Version: 6.00 Build 0)  -->
<svg version="1.1" id="Layer_1" xmlns="http://www.w3.org/2000/svg" xmlns:xlink="http://www.w3.org/1999/xlink" x="0px" y="0px"
	 viewBox="0 0 131.5 46.5" style="enable-background:new 0 0 131.5 46.5;" xml:space="preserve">
<style type="text/css">
	.st0{fill:#F48221;}
	.st1{fill:#F48322;}
</style>
<g>
	<path class="st0" d="M102.2,25.1c0-4,0-7.9,0-11.9c0-1.1,0-2.3,0-3.4c0-0.7,0.1-1.4,0.4-2c0.7-1.4,2.1-2.1,3.8-1.6
		c1.1,0.3,1.9,0.9,2.8,1.6c1.6,1.3,3.1,2.7,4.7,4c0.3,0.2,0.6,0.2,0.9,0.3c0.8,0.1,1.6,0.1,2.3,0c0.2,0,0.4-0.1,0.6-0.3
		c1.6-1.3,3.1-2.6,4.7-4c0.4-0.4,0.8-0.8,1.3-1.1c0.9-0.5,1.9-0.9,2.9-0.7c1.3,0.2,2.3,1.2,2.6,2.6c0.1,0.6,0.1,1.3,0.1,2
		c-0.1,3.6,0,7.1,0,10.7c0,1.2,0,2.5,0,3.7c-0.1,1.6-0.3,3.2-1,4.7c-1,2.3-2.9,3.7-5.3,4.4c-1.6,0.5-3.2,0.7-4.9,0.7
		c-1.5,0-3,0-4.4,0c-0.2,0-0.3,0.1-0.3,0.3c0,1.2,0,2.5,0,3.7c0,1.6-0.7,2.8-2.2,3.6c-2.3,1.1-4.6,1.1-6.9-0.1
		c-1.1-0.6-1.8-1.6-2-2.8c0-0.1,0-0.2,0-0.3C102.2,34.5,102.2,29.8,102.2,25.1z M125.6,9.5c-0.1,0.1-0.3,0.1-0.3,0.2
		c-0.2,0.2-0.4,0.4-0.6,0.6c-1.6,1.4-3.2,2.7-4.8,4.1c-0.5,0.4-1,0.7-1.6,0.8c-1.5,0.4-3,0.4-4.5,0.1c-0.8-0.1-1.6-0.4-2.2-1
		c-1.3-1.2-2.7-2.3-4.1-3.4c-0.5-0.4-0.9-0.9-1.5-1.2c-0.1,0-0.1-0.1-0.2-0.1c-0.1,0,0,0.2,0,0.2c0,1.1,0,2.2,0,3.3
		c0,8.5,0,17.1,0,25.6c0,0.3,0.1,0.5,0.4,0.6c0.4,0.2,0.9,0.3,1.3,0.3c0.7,0,1.3,0,1.9-0.3c0.2-0.1,0.3-0.3,0.3-0.5
		c0-2.4,0-4.8,0-7.1c0-0.3,0-0.3,0.3-0.3c2.5,0,4.9,0,7.4,0c1.4,0,2.8-0.1,4.2-0.5c1.9-0.5,3.1-1.7,3.6-3.6c0.3-1,0.4-2.1,0.4-3.1
		c0-3.8,0-7.5,0-11.3c0-0.4,0-0.9,0-1.3C125.6,10.8,125.6,10.2,125.6,9.5z"/>
	<path class="st0" d="M126.7,34.2c0,2.2,0,4.3,0,6.4c0,0.8-0.5,1.3-1.1,1.7c-0.9,0.6-1.9,0.7-3,0.7c-1,0-1.9-0.2-2.7-0.8
		c-0.5-0.3-0.8-0.7-1-1.2c0-0.1-0.1-0.3-0.1-0.4c0-1.2,0-2.4,0-3.6c0-0.2,0-0.2,0.2-0.2c1.5,0.2,2.9-0.1,4.3-0.5
		c0.9-0.3,1.8-0.7,2.6-1.3C126.2,34.8,126.4,34.5,126.7,34.2z"/>
	<path class="st0" d="M111,26.2c-1.9,0-3.5-1.5-3.5-3.4c0-1.9,1.6-3.4,3.5-3.4c1.9,0,3.5,1.5,3.5,3.4
		C114.4,24.7,112.9,26.2,111,26.2z"/>
	<path class="st0" d="M124.4,22.9c0,1.9-1.5,3.4-3.5,3.4c-1.9,0-3.4-1.5-3.4-3.4c0-1.9,1.6-3.4,3.5-3.4
		C122.8,19.5,124.4,21,124.4,22.9z"/>
</g>
<g>
	<path class="st1" d="M5.5,18.5c0,1,0,2.1,0,3.1c0,2.3,1.3,3.8,3.6,3.8c1.3,0,2.5-0.1,3.8-0.2c1-0.1,1.7-0.8,2.1-1.7
		c0.5-1,0.5-2,0.5-3.1c0-1.8,0-3.5,0-5.3c0-0.5,0.2-0.7,0.6-0.8c0.6-0.1,1.3-0.1,1.9,0c0.4,0.1,0.6,0.3,0.6,0.7c0,1.3,0,2.6,0,4
		c0,0.4,0.1,0.5,0.4,0.5c0.4,0,0.8,0,1.2,0c0.3,0,0.4-0.1,0.5-0.4c0.5-4.1,3.3-6.7,7.3-6.9c1.3,0,2.7,0,4,0.4
		c2.2,0.8,3.6,2.3,4.2,4.5c0.6,2,0.5,4,0,6c-0.9,3-3.4,5-6.6,5.2c-1.2,0.1-2.4,0.1-3.7-0.2c-2.5-0.6-4.2-2.1-4.9-4.7
		c-0.1-0.4-0.3-0.6-0.7-0.5c-0.4,0-0.9,0-1.3,0c-0.4,0-0.6,0.1-0.7,0.5c-0.2,0.9-0.5,1.7-1,2.5c-1,1.4-2.3,2.2-4,2.3
		c-1.7,0.1-3.4,0.1-5.1,0.1c-2.1,0-3.8-0.8-4.8-2.8c-0.5-1-0.7-2-0.8-3.1c-0.1-1.6-0.1-3.2-0.1-4.9c0-0.9,0-1.7-0.1-2.6
		c0-0.5,0.2-0.7,0.6-0.8c0.6-0.1,1.3-0.1,1.9,0c0.4,0.1,0.7,0.3,0.7,0.8C5.5,16.1,5.5,17.3,5.5,18.5z M28.6,14.8
		c-2.6,0-4.3,1.3-4.8,3.6c-0.3,1.3-0.3,2.6,0.1,3.9c0.5,1.9,1.6,2.9,3.4,3.2c0.8,0.1,1.6,0.2,2.3,0c1.8-0.3,3-1.3,3.5-3.1
		c0.4-1.5,0.4-2.9,0-4.4c-0.4-1.7-1.5-2.7-3.1-3.1C29.5,14.8,29,14.7,28.6,14.8z"/>
	<path class="st1" d="M93,18.3c0,1.7,0.1,3.5-0.3,5.3c-1.1,4.9-6.1,5.6-8.9,3.9c-1.2-0.7-2.1-1.5-3-2.5c-0.3-0.3-0.4-0.3-0.6,0.1
		c-1,2-2.5,3-4.7,3.1c-4.1,0.1-8.2,0.1-12.3,0.1c-3.2,0-5.2-1.9-5.6-5.2c-0.2-2.1-0.2-4.2-0.2-6.3c0-0.7,0-1.5-0.1-2.2
		c0-0.4,0.2-0.7,0.6-0.7c0.8-0.1,1.5-0.1,2.3,0c0.5,0.1,0.6,0.4,0.6,0.8c0,2.2,0,4.3,0,6.5c0,2.2,1.8,4.1,4,4.1
		c3.3,0,6.6-0.1,10-0.2c1,0,1.7-0.5,2.1-1.4c0.7-1.2,0.8-2.5,0.8-3.8c0-1.7,0-3.5,0-5.2c0-0.5,0.2-0.7,0.6-0.8
		c0.7-0.1,1.4-0.1,2.1,0c0.5,0.1,0.7,0.3,0.7,0.8c0,1.9,0,3.7,0,5.6c0,0.4,0.1,0.7,0.3,1c1.1,1.3,2.2,2.5,3.8,3.2
		c0.7,0.3,1.4,0.5,2.2,0.3c0.7-0.1,1.2-0.5,1.5-1.1c0.6-1.1,0.7-2.3,0.8-3.5c0-1.8,0-3.6,0-5.4c0-0.6,0.2-0.8,0.7-0.9
		c0.7-0.1,1.4-0.1,2,0c0.5,0.1,0.7,0.3,0.7,0.8C93,15.9,93,17,93,18.3z"/>
	<path class="st1" d="M54.5,22.7c0,2,0,3.4,0,4.9c0,0.6-0.3,1-0.9,1c-0.5,0-0.9,0-1.4,0c-0.5,0-0.7-0.2-0.7-0.8c0-0.9,0-0.8-0.7-0.5
		c-2.8,1.4-5.8,1.4-8.6,0.1c-2-0.9-3-2.7-3.4-4.8c-0.3-1.8-0.3-3.5,0.2-5.3c0.7-2.5,2.3-4.2,4.7-4.9c1.9-0.6,3.9-0.6,5.9-0.1
		c2.9,0.8,4.4,2.8,4.9,5.7C54.7,19.8,54.4,21.5,54.5,22.7z M41.6,20.2c0,0.4,0,0.7,0,1c0.2,2.2,1.3,3.7,3.1,4.2
		c1.1,0.3,2.2,0.3,3.4,0c1.5-0.4,2.5-1.3,3-2.9c0.5-1.7,0.5-3.3-0.1-5c-0.2-0.7-0.6-1.3-1.2-1.7c-1.6-1.4-4.8-1.4-6.5,0
		C42,16.9,41.6,18.5,41.6,20.2z"/>
	<path class="st1" d="M93.5,35c0,1.5-1.2,2.7-2.7,2.7c-1.4,0-2.7-1.2-2.7-2.7c0-1.5,1.2-2.7,2.6-2.7C92.3,32.2,93.5,33.5,93.5,35z"
		/>
	<path class="st1" d="M71.7,11.4c1.5,0,2.6,1.2,2.6,2.7c0,1.5-1.2,2.7-2.6,2.7c-1.5,0-2.7-1.2-2.7-2.7C69,12.6,70.2,11.4,71.7,11.4z
		"/>
	<path class="st1" d="M87.7,35c0,1.5-1.2,2.7-2.6,2.7c-1.5,0-2.7-1.3-2.7-2.7c0-1.5,1.2-2.7,2.7-2.7C86.5,32.3,87.7,33.5,87.7,35z"
		/>
	<path class="st1" d="M10.1,11.4c1.5,0,2.7,1.2,2.7,2.7c0,1.5-1.2,2.7-2.7,2.7c-1.5,0-2.6-1.2-2.6-2.7C7.5,12.6,8.7,11.4,10.1,11.4z
		"/>
	<path class="st1" d="M63.3,14.1c0-1.5,1.2-2.7,2.6-2.7c1.5,0,2.7,1.2,2.6,2.8c0,1.5-1.2,2.7-2.7,2.7C64.4,16.8,63.2,15.6,63.3,14.1
		z"/>
	<path class="st1" d="M81.9,35c0,1.5-1.2,2.7-2.6,2.7c-1.5,0-2.7-1.2-2.6-2.8c0-1.5,1.2-2.7,2.7-2.7C80.8,32.3,81.9,33.5,81.9,35z"
		/>
</g>
</svg>
